<svg width="281" height="133" viewBox="0 0 281 133" fill="none" xmlns="http://www.w3.org/2000/svg">
<mask id="mask0_3902_2450" style="mask-type:alpha" maskUnits="userSpaceOnUse" x="0" y="0" width="281" height="133">
<rect width="281" height="133" fill="#D9D9D9"/>
</mask>
<g mask="url(#mask0_3902_2450)">
<path d="M-13.2331 -112C-10.4373 23.2059 55.4044 68.4973 164.28 85.3999C273.155 102.302 341.057 178.852 341.057 314.496C341.057 450.14 198.231 712.498 226.509 765.134C254.787 817.771 315.568 749.503 228.453 629.998C141.338 510.493 -259.016 507.501 27.1419 714.001C72.5195 746.747 -92.9738 837.001 38.6336 884.188C108.953 909.401 249.204 851.485 249.204 991.498C249.204 1148.5 -99.2368 946.268 -157.573 1098.5C-222.341 1267.52 -166.897 1467.5 158.865 1467.5C387.993 1467.5 87.1446 1648.21 214.885 1744.5C284.532 1797 318.851 1708.03 243.653 1700C153.459 1690.38 -23.5477 1671.53 -120.227 1837C-255.483 2068.5 -246.903 2706.5 203.278 2518" stroke="#00C1FF" stroke-width="3"/>
</g>
</svg>
