<svg width="320" height="135" viewBox="0 0 320 135" fill="none" xmlns="http://www.w3.org/2000/svg">
<mask id="mask0_4402_2450" style="mask-type:alpha" maskUnits="userSpaceOnUse" x="0" y="0" width="320" height="135">
<rect width="320" height="135" fill="#D9D9D9"/>
</mask>
<g mask="url(#mask0_4402_2450)">
<path d="M33.4998 -1750C36.2696 -1614.79 101.5 -1569.5 209.364 -1552.6C317.228 -1535.7 384.5 -1459.15 384.5 -1323.5C384.5 -1187.86 243 -925.502 271.015 -872.866C299.031 -820.229 359.247 -888.497 272.941 -1008C186.635 -1127.51 -210 -1130.5 73.4997 -923.999C118.456 -891.253 -45.5004 -800.999 84.8847 -753.812C154.551 -728.599 293.5 -786.515 293.5 -646.502C293.5 -489.502 -51.7051 -691.732 -109.5 -539.5C-173.666 -370.484 -118.737 -170.498 204 -170.498C431 -170.498 132.945 10.2099 259.5 106.501C328.5 159.001 362.5 70.0263 288 62.0013C198.644 52.376 23.2809 33.5295 -72.5001 199.001C-206.5 430.501 -198 1068.5 248 880" stroke="#00C1FF" stroke-width="3"/>
</g>
</svg>
