<svg preserveAspectRatio="none" viewBox="0 0 309 104" fill="none" xmlns="http://www.w3.org/2000/svg">
<circle cx="2" cy="102" r="2" fill="#01C1FF"/>
<circle cx="49.7168" cy="102" r="2" fill="#01C1FF"/>
<circle cx="97.4346" cy="102" r="2" fill="#01C1FF"/>
<circle cx="145.151" cy="102" r="2" fill="#01C1FF"/>
<circle cx="192.869" cy="102" r="2" fill="#01C1FF"/>
<circle cx="240.587" cy="102" r="2" fill="#01C1FF"/>
<path d="M5.1123 95.546C18.7458 83.4856 46.1439 72.7361 48.8968 95.546" stroke="url(#paint0_radial_1_15447)" stroke-width="4" stroke-linecap="round"/>
<path d="M52.8301 95.546C66.4636 83.4856 93.8617 72.7361 96.6146 95.546" stroke="url(#paint1_radial_1_15447)" stroke-width="4" stroke-linecap="round"/>
<path d="M100.547 95.546C114.181 83.4856 141.579 72.7361 144.332 95.546" stroke="url(#paint2_radial_1_15447)" stroke-width="4" stroke-linecap="round"/>
<path d="M148.265 95.546C161.898 83.4856 189.296 72.7361 192.049 95.546" stroke="url(#paint3_radial_1_15447)" stroke-width="4" stroke-linecap="round"/>
<path d="M195.981 95.546C209.615 83.4856 237.013 72.7361 239.766 95.546" stroke="url(#paint4_radial_1_15447)" stroke-width="4" stroke-linecap="round"/>
<path d="M243.699 95.5459C256.084 68.909 282.63 40.9465 304.156 28.0869C354.134 -1.77048 415.277 3.03265 455 3.03265" stroke="url(#paint5_radial_1_15447)" stroke-width="4" stroke-linecap="round"/>
<defs>
<radialGradient id="paint0_radial_1_15447" cx="0" cy="0" r="1" gradientUnits="userSpaceOnUse" gradientTransform="translate(53.8783 93.1864) rotate(173.084) scale(48.9914 160.395)">
<stop offset="0.4375" stop-color="#01C1FF"/>
<stop offset="1" stop-color="#01C1FF" stop-opacity="0"/>
</radialGradient>
<radialGradient id="paint1_radial_1_15447" cx="0" cy="0" r="1" gradientUnits="userSpaceOnUse" gradientTransform="translate(101.596 93.1864) rotate(173.084) scale(48.9914 160.395)">
<stop offset="0.4375" stop-color="#01C1FF"/>
<stop offset="1" stop-color="#01C1FF" stop-opacity="0"/>
</radialGradient>
<radialGradient id="paint2_radial_1_15447" cx="0" cy="0" r="1" gradientUnits="userSpaceOnUse" gradientTransform="translate(149.313 93.1864) rotate(173.084) scale(48.9914 160.395)">
<stop offset="0.4375" stop-color="#01C1FF"/>
<stop offset="1" stop-color="#01C1FF" stop-opacity="0"/>
</radialGradient>
<radialGradient id="paint3_radial_1_15447" cx="0" cy="0" r="1" gradientUnits="userSpaceOnUse" gradientTransform="translate(197.031 93.1864) rotate(173.084) scale(48.9914 160.395)">
<stop offset="0.4375" stop-color="#01C1FF"/>
<stop offset="1" stop-color="#01C1FF" stop-opacity="0"/>
</radialGradient>
<radialGradient id="paint4_radial_1_15447" cx="0" cy="0" r="1" gradientUnits="userSpaceOnUse" gradientTransform="translate(244.747 93.1864) rotate(173.084) scale(48.9914 160.395)">
<stop offset="0.4375" stop-color="#01C1FF"/>
<stop offset="1" stop-color="#01C1FF" stop-opacity="0"/>
</radialGradient>
<radialGradient id="paint5_radial_1_15447" cx="0" cy="0" r="1" gradientUnits="userSpaceOnUse" gradientTransform="translate(323.272 37.3412) rotate(142.145) scale(100.614 329.405)">
<stop offset="0.4375" stop-color="#02C1FF"/>
<stop offset="1" stop-color="#02C1FF" stop-opacity="0"/>
</radialGradient>
</defs>
</svg>