<svg width="321" height="534" viewBox="0 0 321 534" fill="none" xmlns="http://www.w3.org/2000/svg">
<mask id="mask0_4403_2451" style="mask-type:alpha" maskUnits="userSpaceOnUse" x="0" y="0" width="321" height="534">
<rect width="321" height="534" fill="#D9D9D9"/>
</mask>
<g mask="url(#mask0_4403_2451)">
<path d="M17.6941 -641C20.4639 -505.794 85.6941 -460.503 193.558 -443.6C301.422 -426.698 368.694 -350.148 368.694 -214.504C368.694 -78.8601 227.194 183.498 255.21 236.134C283.225 288.771 343.441 220.503 257.135 100.998C170.829 -18.5072 -225.806 -21.4985 57.694 185.001C102.65 217.747 -61.306 308.001 69.079 355.188C138.746 380.401 277.694 322.485 277.694 462.498C277.694 619.498 -67.5108 417.268 -125.306 569.5C-189.472 738.516 -134.542 938.502 188.194 938.502C415.194 938.502 117.14 1119.21 243.694 1215.5C312.694 1268 346.694 1179.03 272.194 1171C182.838 1161.38 7.47523 1142.53 -88.3057 1308C-222.306 1539.5 -213.806 2177.5 232.194 1989" stroke="#00C1FF" stroke-width="3"/>
</g>
</svg>
