<svg width="158" height="24" viewBox="0 0 158 24" fill="none" xmlns="http://www.w3.org/2000/svg">
<path d="M4.29751 22.4124C1.79657 23.8406 0 22.6505 0 20.5336C0 18.28 0 11.5183 0 11.5183C0 11.5183 0 4.75653 0 2.50298C0 0.386083 1.79546 -0.804055 4.29751 0.62411C8.19268 2.8479 19.8771 9.52149 19.8771 9.52149C21.4307 10.4086 21.4307 12.6269 19.8771 13.514C19.8771 13.5151 8.19268 20.1886 4.29751 22.4124Z" fill="#00C1FF"/>
<path d="M17.1618 22.4124C14.6608 23.8406 12.8643 22.6505 12.8643 20.5336C12.8643 18.28 12.8643 11.5183 12.8643 11.5183C12.8643 11.5183 12.8643 4.75653 12.8643 2.50298C12.8643 0.386083 14.6597 -0.804055 17.1618 0.62411C20.9711 2.79942 32.3992 9.32644 32.3992 9.32644C34.1055 10.3006 34.1055 12.736 32.3992 13.7101C32.3981 13.7101 20.9711 20.2371 17.1618 22.4124Z" fill="#6FE4FF"/>
<mask id="mask0_1_15316" style="mask-type:alpha" maskUnits="userSpaceOnUse" x="12" y="0" width="22" height="24">
<path d="M17.1618 22.4124C14.6608 23.8406 12.8643 22.6505 12.8643 20.5336C12.8643 18.28 12.8643 11.5183 12.8643 11.5183C12.8643 11.5183 12.8643 4.75653 12.8643 2.50298C12.8643 0.386083 14.6597 -0.804055 17.1618 0.62411C20.9711 2.79942 32.3992 9.32644 32.3992 9.32644C34.1055 10.3006 34.1055 12.736 32.3992 13.7101C32.3981 13.7101 20.9711 20.2371 17.1618 22.4124Z" fill="#6FE4FF"/>
</mask>
<g mask="url(#mask0_1_15316)">
<g filter="url(#filter0_f_1_15316)">
<path d="M4.29751 22.4124C1.79657 23.8406 0 22.6505 0 20.5336C0 18.28 0 11.5183 0 11.5183C0 11.5183 0 4.75653 0 2.50298C0 0.386083 1.79546 -0.804055 4.29751 0.62411C8.19268 2.8479 19.8771 9.52149 19.8771 9.52149C21.4307 10.4086 21.4307 12.6269 19.8771 13.514C19.8771 13.5151 8.19268 20.1886 4.29751 22.4124Z" fill="#009EE4"/>
</g>
</g>
<path d="M41.9745 15.5324L42.417 14.5395C42.7123 13.8684 43.2439 13.6932 43.9227 14.1891C45.2222 15.1236 47.3475 15.8244 50.1828 15.8244C52.6046 15.8244 53.6377 15.2117 53.6377 14.4811C53.6377 13.6634 52.7818 13.4298 51.3642 13.2546L48.1455 12.8469C44.2771 12.351 42.3278 10.9779 42.3278 8.58442C42.3278 6.01571 44.4543 3.97153 49.3848 3.97153C52.1309 3.97153 53.903 4.38037 55.0543 4.81785C56.3237 5.31374 56.5009 5.72258 56.5009 6.74522V8.05877C56.5009 8.87644 56.2056 9.16847 55.3786 9.16847H54.4636C53.6366 9.16847 53.3413 8.87644 53.3413 8.05877V7.62019C52.8097 7.44497 51.4812 7.1827 49.9164 7.1827C47.2004 7.1827 45.8708 7.67859 45.8708 8.49626C45.8708 9.10896 46.6677 9.45939 48.1143 9.66436L51.2739 10.0732C55.1423 10.5691 57.1796 11.7085 57.1796 14.4525C57.1796 17.2548 54.4926 19.0367 49.7091 19.0367C46.1951 19.0367 43.361 17.927 42.2387 16.9055C41.8263 16.5253 41.7672 16.0283 41.9745 15.5324Z" fill="black"/>
<path d="M76.8238 18.802H75.2C74.4031 18.802 74.1367 18.6852 73.7533 18.1011L70.6829 13.6337C70.2404 13.021 69.915 12.8744 69 12.8744L65.9296 12.8744V17.6923C65.9296 18.5099 65.6342 18.802 64.8073 18.802H63.6259C62.7989 18.802 62.5036 18.5099 62.5036 17.6923V3.18252H61.4114C60.5844 3.18252 60.2891 2.89049 60.2891 2.07282V1.10969C60.2891 0.292025 60.5844 0 61.4114 0L64.8073 0C65.6342 0 65.9296 0.292025 65.9296 1.10969V9.60595L68.6757 9.60595C69.5907 9.60595 69.9161 9.46049 70.3586 8.84669L72.9275 4.93466C73.341 4.32196 73.6062 4.20515 74.4042 4.20515H76.028C76.9141 4.20515 77.0913 4.90601 76.5886 5.63552L73.7244 9.92773C73.429 10.3366 73.0746 10.774 72.7202 11.1245C73.0746 11.4165 73.5761 11.9124 73.7834 12.2044L77.3855 17.4014C77.887 18.1022 77.7098 18.802 76.8238 18.802Z" fill="black"/>
<path d="M82.4141 21.4886V20.5255C82.4141 19.7078 82.7095 19.4158 83.5364 19.4158H84.9541C85.81 19.4158 86.2235 19.2406 86.5489 18.5695L86.7261 18.1904L79.9644 5.54847C79.551 4.7892 79.8753 4.20515 80.7613 4.20515H82.2971C83.094 4.20515 83.4484 4.35062 83.7437 4.90601L86.5779 10.6572C87.2276 11.9708 87.9654 13.4893 88.5561 14.8029C89.1468 13.518 89.8255 12.059 90.4753 10.7741L93.3685 4.90601C93.6338 4.35172 94.0183 4.20515 94.8151 4.20515H96.3509C97.2369 4.20515 97.5613 4.7892 97.1478 5.54847L89.441 20.0009C88.555 21.6649 87.5219 22.5994 85.2182 22.5994H83.5353C82.7095 22.5983 82.4141 22.3063 82.4141 21.4886Z" fill="black"/>
<path d="M116.018 11.4452V11.7956C116.018 12.6133 115.723 12.9053 114.896 12.9053H102.789C103.203 14.4525 104.768 15.9412 108.104 15.9412C111.087 15.9412 112.445 14.9781 113.065 14.5395C113.744 14.0436 114.216 14.2177 114.571 14.8899L115.072 15.8531C115.338 16.349 115.19 16.7291 114.747 17.1082C114.097 17.6625 111.883 19.0356 108.103 19.0356C103.025 19.0356 99.4816 16.0867 99.4816 11.4738C99.4816 6.94798 102.877 3.97043 107.749 3.97043C112.623 3.97043 116.018 6.91933 116.018 11.4452ZM102.789 10.0732H112.741C112.357 8.55466 110.791 7.1243 107.75 7.1243C104.709 7.1243 103.173 8.55466 102.789 10.0732Z" fill="black"/>
<path d="M137.551 10.9482V17.6923C137.551 18.5099 137.255 18.802 136.428 18.802H135.247C134.42 18.802 134.125 18.5099 134.125 17.6923V11.0352C134.125 8.67037 132.707 7.38546 130.315 7.38546C128.455 7.38546 126.241 8.52381 125.147 9.72056V17.6912C125.147 18.5088 124.852 18.8009 124.025 18.8009H122.844C122.017 18.8009 121.721 18.5088 121.721 17.6912V7.38546H120.629C119.802 7.38546 119.507 7.09344 119.507 6.27577V5.31264C119.507 4.49497 119.802 4.20295 120.629 4.20295H123.493C124.32 4.20295 124.616 4.49497 124.616 5.31264V6.13031C126.211 4.8454 128.366 3.96933 130.699 3.96933C135.129 3.97043 137.551 6.5689 137.551 10.9482Z" fill="black"/>
<path d="M157.938 5.31374V18.9783C157.938 22.0142 154.631 24 150.409 24C146.422 24 144.533 22.8319 143.676 22.044C143.262 21.6649 143.203 21.1679 143.41 20.672L143.852 19.6791C144.177 18.9496 144.708 18.8031 145.358 19.3287C146.391 20.1464 147.395 20.8175 150.377 20.8472C153.034 20.8472 154.511 19.8841 154.511 18.716V17.3143C153.448 17.9854 152.148 18.424 150.288 18.424C145.505 18.424 142.197 15.6503 142.197 11.2126C142.197 6.77497 145.504 3.97153 150.288 3.97153C152.354 3.97153 153.713 4.55558 154.629 5.25644C154.865 4.76055 155.338 4.20515 155.929 4.20515H156.815C157.643 4.20405 157.938 4.49608 157.938 5.31374ZM154.513 13.5477V8.87644C153.686 7.88356 152.476 7.27086 150.29 7.27086C147.662 7.27086 145.743 8.75963 145.743 11.2126C145.743 13.6656 147.662 15.1247 150.29 15.1247C152.446 15.1236 153.657 14.5109 154.513 13.5477Z" fill="black"/>
<defs>
<filter id="filter0_f_1_15316" x="-1.36237" y="-1.36237" width="23.767" height="25.7614" filterUnits="userSpaceOnUse" color-interpolation-filters="sRGB">
<feFlood flood-opacity="0" result="BackgroundImageFix"/>
<feBlend mode="normal" in="SourceGraphic" in2="BackgroundImageFix" result="shape"/>
<feGaussianBlur stdDeviation="0.681184" result="effect1_foregroundBlur_1_15316"/>
</filter>
</defs>
</svg>
