<svg width="128" height="20" viewBox="0 0 128 20" fill="none" xmlns="http://www.w3.org/2000/svg">
<path d="M3.52174 18.5787C1.47226 19.7626 0 18.776 0 17.0213C0 15.1533 0 9.5484 0 9.5484C0 9.5484 0 3.94349 0 2.07549C0 0.320762 1.47135 -0.665761 3.52174 0.518066C6.71377 2.3614 16.2889 7.89323 16.2889 7.89323C17.5621 8.62856 17.5621 10.4673 16.2889 11.2026C16.2889 11.2036 6.71377 16.7354 3.52174 18.5787Z" fill="#00C1FF"/>
<path d="M14.0609 18.578C12.0114 19.7618 10.5392 18.7753 10.5392 17.0206C10.5392 15.1526 10.5392 9.54767 10.5392 9.54767C10.5392 9.54767 10.5392 3.94276 10.5392 2.07476C10.5392 0.32003 12.0105 -0.666493 14.0609 0.517334C17.1826 2.32048 26.5477 7.73082 26.5477 7.73082C27.946 8.53831 27.946 10.557 26.5477 11.3645C26.5468 11.3645 17.1826 16.7749 14.0609 18.578Z" fill="#BCEC30"/>
<mask id="mask0_1_15170" style="mask-type:alpha" maskUnits="userSpaceOnUse" x="10" y="0" width="18" height="20">
<path d="M14.0609 18.578C12.0114 19.7618 10.5392 18.7753 10.5392 17.0206C10.5392 15.1526 10.5392 9.54767 10.5392 9.54767C10.5392 9.54767 10.5392 3.94276 10.5392 2.07476C10.5392 0.32003 12.0105 -0.666493 14.0609 0.517334C17.1826 2.32048 26.5478 7.73082 26.5478 7.73082C27.946 8.53831 27.946 10.557 26.5478 11.3645C26.5468 11.3645 17.1826 16.7749 14.0609 18.578Z" fill="#6FE4FF"/>
</mask>
<g mask="url(#mask0_1_15170)">
<g filter="url(#filter0_f_1_15170)">
<path d="M3.52222 18.579C1.47275 19.7628 0.000488281 18.7763 0.000488281 17.0215C0.000488281 15.1535 0.000488281 9.54864 0.000488281 9.54864C0.000488281 9.54864 0.000488281 3.94373 0.000488281 2.07574C0.000488281 0.321006 1.47184 -0.665516 3.52222 0.51831C6.71426 2.36165 16.2894 7.89348 16.2894 7.89348C17.5626 8.6288 17.5626 10.4676 16.2894 11.2029C16.2894 11.2038 6.71426 16.7356 3.52222 18.579Z" fill="#99D100"/>
</g>
</g>
<path d="M34.4464 12.8836L34.8034 12.0706C35.0469 11.5178 35.485 11.3714 36.0368 11.7779C37.0917 12.5584 38.8282 13.1275 41.1488 13.1275C43.1287 13.1275 43.9726 12.6234 43.9726 12.0218C43.9726 11.3389 43.2748 11.1601 42.1226 11.0137L39.4935 10.6723C36.3289 10.2495 34.7385 9.11134 34.7385 7.12766C34.7385 4.99764 36.475 3.30664 40.4997 3.30664C42.7393 3.30664 44.1836 3.64809 45.1249 4.00581C46.1635 4.4123 46.3096 4.75375 46.3096 5.59925V6.70491C46.3096 7.38781 46.0661 7.61545 45.4008 7.61545H44.6542C43.9726 7.61545 43.7454 7.37156 43.7454 6.70491V6.3472C43.3073 6.20086 42.2199 5.98948 40.9541 5.98948C38.7308 5.98948 37.6597 6.39598 37.6597 7.07888C37.6597 7.58293 38.3088 7.87561 39.4935 8.0382L42.0739 8.37965C45.1898 8.76989 46.8451 9.71295 46.8451 11.9893C46.8451 14.2982 44.6542 15.7778 40.7431 15.7778C37.8707 15.7778 35.5662 14.8673 34.6412 14.0218C34.3166 13.6966 34.2679 13.2901 34.4464 12.8836Z" fill="black"/>
<path d="M62.9426 15.5818H61.6119C60.9627 15.5818 60.7518 15.4843 60.4272 14.9965L57.928 11.3055C57.5709 10.8015 57.2951 10.6714 56.5485 10.6714H54.0493V14.6713C54.0493 15.3542 53.8059 15.5818 53.1405 15.5818H52.183C51.5014 15.5818 51.2742 15.3379 51.2742 14.6713V2.67166H50.3816C49.7 2.67166 49.4728 2.42777 49.4728 1.76112V0.948139C49.4728 0.265233 49.7163 0.0375977 50.3816 0.0375977H53.1567C53.8384 0.0375977 54.0656 0.281493 54.0656 0.948139V7.97231H56.3051C57.0516 7.97231 57.3113 7.85849 57.6845 7.33818L59.778 4.10251C60.1188 3.59846 60.3298 3.5009 60.979 3.5009H62.3097C63.04 3.5009 63.1698 4.08625 62.7641 4.68786L60.4272 8.23247C60.1838 8.57392 59.8916 8.93163 59.6158 9.2243C59.9079 9.4682 60.3136 9.87469 60.4759 10.1186L63.397 14.4274C63.8027 14.9965 63.6567 15.5818 62.9426 15.5818Z" fill="black"/>
<path d="M67.6916 17.7926V16.9959C67.6916 16.313 67.935 16.0853 68.6004 16.0853H69.7526C70.4504 16.0853 70.7912 15.939 71.0509 15.3862L71.1969 15.0772L65.6792 4.62226C65.3384 3.98813 65.6143 3.5166 66.3283 3.5166H67.578C68.2271 3.5166 68.5192 3.63042 68.7626 4.10195L71.0671 8.84977C71.6027 9.93917 72.2031 11.1912 72.6738 12.2806C73.1606 11.2237 73.7124 10.0042 74.2317 8.94733L76.5849 4.10195C76.7958 3.64668 77.1204 3.5166 77.7696 3.5166H79.0192C79.7495 3.5166 80.0091 4.00439 79.6683 4.62226L73.3878 16.5731C72.6575 17.9552 71.8299 18.7194 69.9473 18.7194H68.5679C67.9188 18.7194 67.6916 18.4755 67.6916 17.7926Z" fill="black"/>
<path d="M96.6386 9.55035C96.6386 13.3876 93.7986 15.7778 89.9686 15.7778C88.3133 15.7778 87.0475 15.3713 86.1549 14.8673V18.1517C86.1549 18.8346 85.9115 19.0623 85.2461 19.0623H84.2886C83.607 19.0623 83.3798 18.8184 83.3798 18.1517V6.15208H82.4872C81.8056 6.15208 81.5784 5.90819 81.5784 5.24154V4.42856C81.5784 3.74565 81.8219 3.51802 82.4872 3.51802H84.8242C85.5058 3.51802 85.733 3.76191 85.733 4.42856V4.4936C86.6418 3.89199 88.0212 3.30664 89.9686 3.30664C93.7986 3.3229 96.6386 5.71307 96.6386 9.55035ZM93.7499 9.55035C93.7499 7.30652 91.9485 6.05452 89.709 6.05452C88.1024 6.05452 86.7878 6.73743 86.1711 7.29026V11.8267C86.8041 12.3795 88.1024 13.0624 89.709 13.0624C91.9485 13.0462 93.7499 11.7942 93.7499 9.55035Z" fill="black"/>
<path d="M111.758 8.6069C111.758 9.2898 111.514 9.51744 110.849 9.51744H109.892C109.21 9.51744 108.983 9.32232 108.983 8.6069C108.983 6.81834 108.301 6.02161 106.678 6.02161C105.137 6.02161 103.854 6.98093 103.14 8.15163V14.6718C103.14 15.3547 102.897 15.5823 102.232 15.5823H101.274C100.592 15.5823 100.365 15.3384 100.365 14.6718V6.15169H99.4727C98.7911 6.15169 98.5639 5.9078 98.5639 5.24115V4.42817C98.5639 3.74526 98.8073 3.51763 99.4727 3.51763H101.81C102.491 3.51763 102.718 3.76152 102.718 4.42817V5.20863C103.579 4.24931 104.893 3.32251 107.133 3.32251C110.411 3.32251 111.758 5.27367 111.758 8.6069Z" fill="black"/>
<path d="M113.48 9.54996C113.48 5.97283 116.499 3.32251 120.507 3.32251C124.483 3.32251 127.486 5.97283 127.486 9.54996C127.486 13.1433 124.467 15.7937 120.507 15.7937C116.499 15.7937 113.48 13.1433 113.48 9.54996ZM124.727 9.54996C124.727 7.46872 122.893 5.95657 120.507 5.95657C118.073 5.95657 116.239 7.48498 116.239 9.54996C116.239 11.6475 118.073 13.1759 120.507 13.1759C122.909 13.1759 124.727 11.6475 124.727 9.54996Z" fill="black"/>
<defs>
<filter id="filter0_f_1_15170" x="-1.46075" y="-1.46027" width="20.1663" height="22.0177" filterUnits="userSpaceOnUse" color-interpolation-filters="sRGB">
<feFlood flood-opacity="0" result="BackgroundImageFix"/>
<feBlend mode="normal" in="SourceGraphic" in2="BackgroundImageFix" result="shape"/>
<feGaussianBlur stdDeviation="0.730621" result="effect1_foregroundBlur_1_15170"/>
</filter>
</defs>
</svg>
