<svg width="115" height="40" viewBox="0 0 115 40" fill="none" xmlns="http://www.w3.org/2000/svg">
<rect width="115" height="40" rx="20" fill="#F4F5F6"/>
<path d="M17.8 26.2C20.7 26.2 22.86 24.06 22.86 21C22.86 17.94 20.7 15.8 17.8 15.8C14.9 15.8 12.74 17.94 12.74 21C12.74 24.06 14.9 26.2 17.8 26.2ZM17.8 24.36C16.06 24.36 14.74 23.02 14.74 21C14.74 18.98 16.06 17.64 17.8 17.64C19.54 17.64 20.86 18.98 20.86 21C20.86 23.02 19.54 24.36 17.8 24.36ZM28.7805 26V17.84H32.0205V16H23.5405V17.84H26.7805V26H28.7805ZM37.9891 14.48C37.9891 16.48 39.0891 17.66 40.4491 18.6L42.0291 19.7C43.0491 20.4 43.8091 21.2 43.8091 22.44C43.8091 23.64 43.0291 24.36 41.7891 24.36C40.5691 24.36 39.7691 23.48 39.7691 22.06V21.08H37.7691V22.2C37.7691 24.78 39.5691 26.2 41.7891 26.2C44.0091 26.2 45.8091 24.88 45.8091 22.2C45.8091 20.26 44.7091 19.12 43.3691 18.18L41.7491 17.02C40.7691 16.36 39.9891 15.66 39.9891 14.48C39.9891 13.28 40.7091 12.64 41.7691 12.64C42.8891 12.64 43.5891 13.32 43.5891 14.86V15.72H45.5891V14.8C45.5891 12.1 43.9091 10.8 41.7691 10.8C39.6891 10.8 37.9891 11.86 37.9891 14.48ZM50.0261 11H48.0261V26H50.0261V20.74L54.8061 26H57.3461L52.2861 20.56L56.9861 16H54.3261L50.0261 20.44V11ZM63.3741 27.12L67.3141 16H65.3141L62.4341 24.38L59.5341 16H57.5341L61.4941 27.1C60.8541 28.66 60.1741 29.4 58.9141 29.4C58.4341 29.4 57.9741 29.3 57.5941 29.18V30.94C57.9741 31.06 58.5341 31.16 59.0941 31.16C61.5541 31.16 62.5341 29.5 63.3741 27.12ZM77.9236 21.68C77.9436 21.46 77.9636 21.24 77.9636 21C77.9636 17.94 75.8836 15.8 73.0436 15.8C70.2036 15.8 68.1236 17.94 68.1236 21C68.1236 24.06 70.2036 26.2 73.0436 26.2C75.3436 26.2 77.0836 25.06 77.7036 23H75.5436C75.1436 23.9 74.3436 24.44 73.1236 24.44C71.4436 24.44 70.3236 23.42 70.0836 21.68H77.9236ZM73.0436 17.56C74.6436 17.56 75.7436 18.56 75.9836 20.24L70.1036 20.24C70.3436 18.56 71.4236 17.56 73.0436 17.56ZM86.9817 20.54V26H88.9817V20.14C88.9817 17.2 87.3617 15.8 85.1817 15.8C83.8617 15.8 82.7617 16.42 82.1417 17.58V16H80.1417V26H82.1417V20.54C82.1417 18.56 83.0617 17.56 84.5617 17.56C86.0617 17.56 86.9817 18.56 86.9817 20.54ZM95.8509 26.2C97.1909 26.2 98.3509 25.56 99.1309 24.5V26.08C99.1309 28 98.0509 29.36 96.2109 29.36C94.6509 29.36 93.5709 28.38 93.3109 26.88H91.2909C91.6509 29.46 93.5909 31.2 96.2109 31.2C98.9509 31.2 101.131 29.12 101.131 26.08V16H99.1309V17.5C98.3509 16.44 97.1909 15.8 95.8509 15.8C93.1109 15.8 91.0509 17.94 91.0509 21C91.0509 24.06 93.1109 26.2 95.8509 26.2ZM96.0909 24.36C94.3509 24.36 93.0509 23.02 93.0509 21C93.0509 18.98 94.3509 17.64 96.0909 17.64C97.8309 17.64 99.1309 18.98 99.1309 21C99.1309 23.02 97.8309 24.36 96.0909 24.36Z" fill="#04121B"/>
</svg>
